HIERARCHY
ROOT Hips
{
	OFFSET 0.00000 0.00000 0.00000
	CHANNELS 6 Xposition Yposition Zposition Zrotation Yrotation Xrotation 
	JOINT LHipJoint
	{
		OFFSET 0 0 0
		CHANNELS 3 Zrotation Yrotation Xrotation
		JOINT LeftUpLeg
		{
			OFFSET 2.36090 -1.39315 1.24752
			CHANNELS 3 Zrotation Yrotation Xrotation
			JOINT LeftLeg
			{
				OFFSET 2.06810 -5.68207 0.00000
				CHANNELS 3 Zrotation Yrotation Xrotation
				JOINT LeftFoot
				{
					OFFSET 2.46631 -6.77613 0.00000
					CHANNELS 3 Zrotation Yrotation Xrotation
					JOINT LeftToeBase
					{
						OFFSET 0.26031 -0.71520 1.99545
						CHANNELS 3 Zrotation Yrotation Xrotation
						End Site
						{
							OFFSET 0.00000 -0.00000 1.05957
						}
					}
				}
			}
		}
	}
	JOINT RHipJoint
	{
		OFFSET 0 0 0
		CHANNELS 3 Zrotation Yrotation Xrotation
		JOINT RightUpLeg
		{
			OFFSET -2.25243 -1.39315 1.24752
			CHANNELS 3 Zrotation Yrotation Xrotation
			JOINT RightLeg
			{
				OFFSET -2.17343 -5.97145 0.00000
				CHANNELS 3 Zrotation Yrotation Xrotation
				JOINT RightFoot
				{
					OFFSET -2.52372 -6.93386 0.00000
					CHANNELS 3 Zrotation Yrotation Xrotation
					JOINT RightToeBase
					{
						OFFSET -0.22538 -0.61923 2.11447
						CHANNELS 3 Zrotation Yrotation Xrotation
						End Site
						{
							OFFSET -0.00000 -0.00000 1.10506
						}
					}
				}
			}
		}
	}
	JOINT LowerBack
	{
		OFFSET 0 0 0
		CHANNELS 3 Zrotation Yrotation Xrotation
		JOINT Spine
		{
			OFFSET 0.01594 2.13103 0.08007
			CHANNELS 3 Zrotation Yrotation Xrotation
			JOINT Spine1
			{
				OFFSET 0.01393 2.09723 0.18338
				CHANNELS 3 Zrotation Yrotation Xrotation
				JOINT Neck
				{
					OFFSET 0 0 0
					CHANNELS 3 Zrotation Yrotation Xrotation
					JOINT Neck1
					{
						OFFSET 0.05351 1.38915 0.32494
						CHANNELS 3 Zrotation Yrotation Xrotation
						JOINT Head
						{
							OFFSET 0.00711 1.45992 -0.21666
							CHANNELS 3 Zrotation Yrotation Xrotation
							End Site
							{
								OFFSET -0.00433 1.47702 -0.11056
							}
						}
					}
				}
				JOINT LeftShoulder
				{
					OFFSET 0 0 0
					CHANNELS 3 Zrotation Yrotation Xrotation
					JOINT LeftArm
					{
						OFFSET 2.87198 0.92249 0.11132
						CHANNELS 3 Zrotation Yrotation Xrotation
						JOINT LeftForeArm
						{
							OFFSET 5.52731 -0.00000 0.00000
							CHANNELS 3 Zrotation Yrotation Xrotation
							JOINT LeftHand
							{
								OFFSET 3.11059 -0.00000 0.00000
								CHANNELS 3 Zrotation Yrotation Xrotation
								JOINT LeftFingerBase
								{
									OFFSET 0 0 0
									CHANNELS 3 Zrotation Yrotation Xrotation
									JOINT LeftHandIndex1
									{
										OFFSET 0.41963 -0.00000 0.00000
										CHANNELS 3 Zrotation Yrotation Xrotation
										End Site
										{
											OFFSET 0.33831 -0.00000 0.00000
										}
									}
								}
								JOINT LThumb
								{
									OFFSET 0 0 0
									CHANNELS 3 Zrotation Yrotation Xrotation
									End Site
									{
										OFFSET 0.34348 -0.00000 0.34348
									}
								}
							}
						}
					}
				}
				JOINT RightShoulder
				{
					OFFSET 0 0 0
					CHANNELS 3 Zrotation Yrotation Xrotation
					JOINT RightArm
					{
						OFFSET -2.94710 0.68072 0.32187
						CHANNELS 3 Zrotation Yrotation Xrotation
						JOINT RightForeArm
						{
							OFFSET -5.25396 -0.00000 -0.00000
							CHANNELS 3 Zrotation Yrotation Xrotation
							JOINT RightHand
							{
								OFFSET -3.10567 -0.00000 0.00000
								CHANNELS 3 Zrotation Yrotation Xrotation
								JOINT RightFingerBase
								{
									OFFSET 0 0 0
									CHANNELS 3 Zrotation Yrotation Xrotation
									JOINT RightHandIndex1
									{
										OFFSET -0.49868 -0.00000 0.00000
										CHANNELS 3 Zrotation Yrotation Xrotation
										End Site
										{
											OFFSET -0.40204 -0.00000 0.00000
										}
									}
								}
								JOINT RThumb
								{
									OFFSET 0 0 0
									CHANNELS 3 Zrotation Yrotation Xrotation
									End Site
									{
										OFFSET -0.40818 -0.00000 0.40818
									}
								}
							}
						}
					}
				}
			}
		}
	}
}
MOTION
Frames: 8
Frame Time: .0083333
3.6427 10.1541 3.0101 0 0 0 0 0 0 -21 0 0 0 0 0 0 0 0 0 0 0 0 0 0 21 0 0 0 0 0 0 0 0 0 0 0 0 0 0 0 0 0 0 0 0 0 0 -16 0 0 21 0 0 11 0 0 0 -8 0 0 0 0 0 0 0 0 0 0 0 0 0 0 0 0 0 0 0 0 8 0 0 0 0 0 0 0 0 0 0 0 0 0 0 0 0 0
3.6427 10.1541 3.0101 -1.8548 -3.8753 3.6797 0.0000 0.0000 0.0000 -0.2719 -8.7534 -89.9940 15.7197 19.5550 77.3955 0.4239 1.4526 11.8788 0.0360 -1.2239 -3.3651 0.0000 0.0000 0.0000 -1.2610 13.7909 -91.5917 -19.1426 -19.9824 87.4923 0.0317 -5.8398 3.1063 -0.1279 2.3051 -6.3495 1.0860 0.6687 -24.0398 0.7693 0.4601 0.5421 0.4199 0.2478 14.1850 4.4497 2.8818 -21.1576 3.2637 1.2662 34.7632 0.8872 1.6253 15.9602 0.0000 -0.0000 0.0000 -78.9425 -2.6349 22.1377 63.8239 -57.2457 -37.5404 -0.0000 0.0000 -8.1445 5.7829 12.8174 1.2871 -7.1250 0.0000 -0.0000 -19.1734 42.0362 1.4613 0.0000 -0.0000 0.0000 77.4765 2.1444 26.5115 -66.6486 57.8359 -39.9240 0.0000 0.0000 15.2659 -3.1461 -24.7174 1.3166 7.1250 -0.0000 -0.0000 26.9065 -52.6427 -5.3749
3.6437 10.1501 3.0080 -1.9481 -3.8506 3.5830 0.0000 0.0000 0.0000 -0.1818 -8.7555 -89.9450 15.7370 19.5586 77.4470 0.4240 1.4435 11.8822 0.0346 -1.2003 -3.3001 0.0000 0.0000 0.0000 -1.1250 13.7731 -91.4730 -19.1415 -19.9823 87.4893 0.0317 -5.8319 3.0986 -0.1316 2.3386 -6.4425 1.2182 0.7041 -23.6839 0.7525 0.4782 0.5979 0.3276 0.2669 14.0496 4.7715 2.8650 -21.5020 2.9362 1.2046 34.9577 0.6893 1.5989 16.1459 -0.0000 -0.0000 0.0000 -78.8018 -2.6486 22.0980 63.9755 -57.2795 -37.6680 -0.0000 0.0000 -8.6069 5.5090 13.2196 1.2635 -7.1250 0.0000 -0.0000 -19.5375 42.3896 1.3133 -0.0000 -0.0000 0.0000 77.4475 2.0660 26.5357 -66.9680 57.8975 -40.1945 0.0000 0.0000 14.9127 -3.1887 -24.7970 1.3385 7.1250 -0.0000 -0.0000 26.9159 -52.7208 -5.4307
3.6448 10.1488 3.0039 -2.0390 -3.8115 3.4816 0.0000 0.0000 0.0000 -0.0920 -8.7903 -89.8583 15.7340 19.5580 77.4383 0.4260 1.4421 11.9125 0.0364 -1.2308 -3.3841 0.0000 0.0000 0.0000 -0.9887 13.7454 -91.3241 -19.1258 -19.9817 87.4432 0.0314 -5.8371 3.1115 -0.1299 2.3229 -6.3988 1.3087 0.6977 -23.3579 0.7929 0.4441 0.7035 0.3072 0.2566 13.9884 4.3771 2.9064 -21.3065 3.3732 1.2844 34.6188 0.9494 1.6375 15.9226 -0.0000 0.0000 0.0000 -78.7747 -2.7331 22.0034 64.1364 -57.3150 -37.8033 -0.0000 0.0000 -9.1056 5.3700 13.4761 1.2549 -7.1250 0.0000 -0.0000 -19.7413 42.6178 1.2119 -0.0000 0.0000 0.0000 77.3223 2.1277 26.5772 -67.2062 57.9428 -40.3963 0.0000 0.0000 14.5777 -3.2873 -24.8474 1.3826 7.1250 -0.0000 -0.0000 26.8548 -52.7826 -5.4592
3.6454 10.1516 3.0000 -2.1316 -3.7606 3.4998 0.0000 0.0000 0.0000 0.0331 -8.8611 -89.8686 15.7238 19.5558 77.4078 0.4284 1.4889 11.9354 0.0355 -1.2163 -3.3442 0.0000 0.0000 0.0000 -0.8716 13.7098 -91.2802 -19.1035 -19.9807 87.3781 0.0316 -5.8445 3.1138 -0.1317 2.3394 -6.4446 1.3801 0.6806 -23.1654 0.8371 0.3986 0.7953 0.2998 0.2395 13.9864 4.3953 2.8906 -21.5927 3.2328 1.2850 34.6660 0.8925 1.6208 16.0137 -0.0000 0.0000 0.0000 -78.7470 -2.8305 21.9441 64.3218 -57.3557 -37.9594 -0.0000 0.0000 -9.4730 5.3651 13.6220 1.2671 -7.1250 0.0000 -0.0000 -19.7940 42.7548 1.1453 -0.0000 0.0000 0.0000 77.1909 2.1968 26.6455 -67.4860 57.9953 -40.6335 0.0000 0.0000 14.2788 -3.3889 -24.9432 1.4305 7.1250 -0.0000 -0.0000 26.8191 -52.8855 -5.5214
3.6460 10.1542 2.9957 -2.2183 -3.7123 3.5028 0.0000 0.0000 0.0000 0.1513 -8.9333 -89.8585 15.7086 19.5526 77.3623 0.4312 1.5347 11.9653 0.0355 -1.2163 -3.3440 0.0000 0.0000 0.0000 -0.7582 13.6757 -91.2235 -19.0789 -19.9796 87.3061 0.0314 -5.8569 3.1318 -0.1326 2.3468 -6.4652 1.4608 0.6754 -22.9479 0.8645 0.3695 0.8745 0.2733 0.2312 13.9554 4.2983 2.8876 -21.6915 3.2889 1.2942 34.5802 0.9347 1.6188 15.9922 0.0000 -0.0000 0.0000 -78.6926 -2.9021 21.9002 64.5082 -57.3962 -38.1165 -0.0000 0.0000 -9.8220 5.2843 13.8120 1.2649 -7.1250 0.0000 -0.0000 -19.9275 42.9256 1.0659 0.0000 -0.0000 0.0000 77.0877 2.2296 26.6933 -67.7730 58.0484 -40.8770 0.0000 0.0000 13.9813 -3.4757 -25.0083 1.4708 7.1250 -0.0000 -0.0000 26.7783 -52.9585 -5.5618
3.6466 10.1575 2.9913 -2.3030 -3.6622 3.5183 0.0000 0.0000 0.0000 0.2727 -9.0129 -89.8548 15.6906 19.5488 77.3085 0.4341 1.5879 11.9961 0.0355 -1.2155 -3.3420 0.0000 0.0000 0.0000 -0.6492 13.6403 -91.1764 -19.0524 -19.9785 87.2285 0.0311 -5.8716 3.1523 -0.1334 2.3543 -6.4859 1.5374 0.6679 -22.7439 0.8931 0.3384 0.9571 0.2501 0.2217 13.9357 4.1823 2.8838 -21.7906 3.3610 1.3045 34.4801 0.9869 1.6169 15.9633 -0.0000 0.0000 0.0000 -78.6417 -2.9788 21.8700 64.7107 -57.4398 -38.2870 -0.0000 0.0000 -10.0910 5.2279 13.9588 1.2644 -7.1250 0.0000 -0.0000 -20.0259 43.0579 1.0031 -0.0000 0.0000 0.0000 76.9806 2.2741 26.7426 -68.0632 58.1012 -41.1233 0.0000 0.0000 13.7066 -3.5621 -25.0677 1.5108 7.1250 -0.0000 -0.0000 26.7342 -53.0265 -5.5978
3.6473 10.1603 2.9873 -2.3864 -3.6145 3.5264 0.0000 0.0000 0.0000 0.3891 -9.0858 -89.8492 15.6758 19.5457 77.2644 0.4368 1.6343 12.0241 0.0353 -1.2132 -3.3356 0.0000 0.0000 0.0000 -0.5412 13.6051 -91.1264 -19.0289 -19.9774 87.1597 0.0309 -5.8840 3.1702 -0.1348 2.3660 -6.5184 1.6178 0.6630 -22.5259 0.9174 0.3108 1.0413 0.2210 0.2143 13.9095 4.1050 2.8790 -21.9161 3.3953 1.3097 34.3969 1.0160 1.6129 15.9499 -0.0000 0.0000 0.0000 -78.5843 -3.0458 21.8594 64.9361 -57.4879 -38.4770 -0.0000 0.0000 -10.2693 5.1844 14.0742 1.2640 -7.1250 0.0000 -0.0000 -20.1029 43.1619 0.9533 -0.0000 0.0000 0.0000 76.8795 2.3142 26.7924 -68.3616 58.1547 -41.3767 0.0000 0.0000 13.4559 -3.6450 -25.1247 1.5493 7.1250 -0.0000 -0.0000 26.6920 -53.0917 -5.6322
